<?xml version="1.0" standalone="no"?><!DOCTYPE svg PUBLIC "-//W3C//DTD SVG 1.1//EN" "http://www.w3.org/Graphics/SVG/1.1/DTD/svg11.dtd"><svg t="1586664958938" class="icon" viewBox="0 0 1024 1024" version="1.1" xmlns="http://www.w3.org/2000/svg" p-id="15094" xmlns:xlink="http://www.w3.org/1999/xlink" width="200" height="200"><defs><style type="text/css"></style></defs><path d="M436 643v251.62c0 16.568-13.431 30-30 30-16.569 0-30-13.432-30-30V613c0-16.569 13.431-30 30-30h211.64c16.568 0 30 13.431 30 30v281.62c0 16.568-13.432 30-30 30-16.569 0-30-13.432-30-30V643H436z" fill="#85A5FF" p-id="15095"></path><path d="M770.884 162.144c0-16.569 13.432-30 30-30 16.569 0 30 13.431 30 30v155.552c0 16.568-13.431 30-30 30-16.568 0-30-13.432-30-30V162.144z" fill="#2F54EB" p-id="15096"></path><path d="M831.64 366c0-16.569 13.431-30 30-30 16.568 0 30 13.431 30 30v528.62c0 16.568-13.432 30-30 30H163c-16.569 0-30-13.432-30-30V366c0-16.569 13.431-30 30-30 16.569 0 30 13.431 30 30v498.62h638.64V366z" fill="#2F54EB" p-id="15097"></path><path d="M512.267 165.005L115.588 428.248c-13.805 9.162-32.423 5.397-41.585-8.408-9.161-13.805-5.396-32.424 8.409-41.585l413.267-274.252a30 30 0 0 1 33.177 0l413.267 274.252c13.805 9.161 17.57 27.78 8.408 41.585-9.161 13.805-27.78 17.57-41.585 8.408L512.267 165.005z" fill="#2F54EB" p-id="15098"></path></svg>