<?xml version="1.0" standalone="no"?><!DOCTYPE svg PUBLIC "-//W3C//DTD SVG 1.1//EN" "http://www.w3.org/Graphics/SVG/1.1/DTD/svg11.dtd"><svg t="1586664947858" class="icon" viewBox="0 0 1024 1024" version="1.1" xmlns="http://www.w3.org/2000/svg" p-id="14223" xmlns:xlink="http://www.w3.org/1999/xlink" width="200" height="200"><defs><style type="text/css"></style></defs><path d="M945.71 946c-18.67 18.67-49.21 18.67-67.88 0L674.18 742.35c-18.67-18.67-18.67-49.21 0-67.88 18.67-18.67 49.21-18.67 67.88 0l203.65 203.65c18.66 18.66 18.66 49.21 0 67.88z" fill="#CDD8F8" p-id="14224"></path><path d="M447.71 832c-51.82 0-102.11-10.16-149.49-30.2-45.73-19.34-86.79-47.02-122.04-82.27-35.25-35.25-62.93-76.31-82.27-122.04-20.04-47.37-30.2-97.67-30.2-149.49s10.16-102.11 30.2-149.49c19.34-45.73 47.02-86.79 82.27-122.04 35.25-35.25 76.31-62.93 122.04-82.27C345.6 74.16 395.89 64 447.71 64S549.82 74.16 597.2 94.2c45.73 19.34 86.79 47.02 122.04 82.27 35.25 35.25 62.93 76.31 82.27 122.04 20.04 47.37 30.2 97.67 30.2 149.49s-10.16 102.11-30.2 149.49c-19.34 45.73-47.02 86.79-82.27 122.04-35.25 35.25-76.31 62.93-122.04 82.27-47.38 20.04-97.67 30.2-149.49 30.2z m0-667.83c-75.81 0-147.09 29.52-200.7 83.13S163.88 372.18 163.88 448s29.52 147.09 83.13 200.7c53.61 53.61 124.88 83.13 200.7 83.13s147.09-29.52 200.7-83.13c53.61-53.61 83.13-124.88 83.13-200.7s-29.52-147.09-83.13-200.7-124.89-83.13-200.7-83.13z" fill="#5C76F9" p-id="14225"></path></svg>